# xmcd CD database file
#
# Track frame offsets:
#	150
#	17863
#	30460
#	56683
#	69378
#	90742
#	109102
#	133838
#	148912
#	169870
#	194628
#	216585
#	239228
#
# Disc length: 3458 seconds
#
# Revision: 1
# Processed by: cddbd v1.4PL0 Copyright (c) Steve Scherf et al.
# Submitted via: NotifyCDPlayer 1.60beta14
#
DISCID=d00d800d
DTITLE=Boyz II Men - Legacy - The Greatest Hits Collection
DYEAR=1900
DGENRE=
TTITLE0=Motownphilly
TTITLE1=It's So Hard to Say Goodby to Yesterday
TTITLE2=End of the Road
TTITLE3=In the Still of the Nite (I'll Remember)
TTITLE4=Hey Lover (w/ LL Cool J)
TTITLE5=I'll Make Love to You
TTITLE6=On Bended Knee
TTITLE7=Water Runs Dry
TTITLE8=One Sweet Day (w/ Mariah Carey)
TTITLE9=Doin' Just Fine
TTITLE10=4 Seasons of Loneliness
TTITLE11=A Song for Mama
TTITLE12=Pass You By
EXTD=
EXTT0=
EXTT1=
EXTT2=
EXTT3=
EXTT4=
EXTT5=
EXTT6=
EXTT7=
EXTT8=
EXTT9=
EXTT10=
EXTT11=
EXTT12=
PLAYORDER=
